<svg xmlns="http://www.w3.org/2000/svg" viewBox="0 0 200 1" width="200" height="50">
    <path fill="#312f2b" d="M40.088,14.737c0.018,0.495,0.037,0.991,0.055,1.486c0.026,0.705,0.051,1.41,0.075,2.115c0.003,0.075,0,0.151-0.01,0.225 c-0.031,0.212-0.141,0.363-0.356,0.42c-0.263,0.069-0.526,0.143-0.792,0.198c-0.696,0.142-1.395,0.274-2.092,0.409 c-0.059,0.011-0.119,0.023-0.179,0.026c-0.203,0.011-0.32-0.076-0.342-0.275c-0.016-0.148-0.01-0.3-0.007-0.45 c0.016-0.811,0.004-1.621-0.056-2.431c-0.04-0.539-0.017-1.082-0.038-1.622c-0.041-1.02-0.093-2.04-0.141-3.06 c-0.01-0.21-0.025-0.42-0.03-0.63c-0.026-1.111-0.041-2.222-0.076-3.333C36.058,6.567,36,5.321,35.952,4.075 c-0.004-0.105-0.001-0.21,0.01-0.315c0.017-0.177,0.104-0.314,0.267-0.392c0.177-0.084,0.354-0.172,0.538-0.24 c0.821-0.306,1.64-0.615,2.467-0.904c0.67-0.234,1.35-0.441,2.025-0.662c0.101-0.033,0.202-0.065,0.298-0.109 c0.239-0.108,0.487-0.145,0.75-0.134c0.619,0.024,1.239,0.031,1.859,0.048c0.136,0.004,0.273,0.01,0.407,0.03 c0.523,0.078,1.044,0.164,1.567,0.241c0.512,0.076,1.004,0.214,1.475,0.427c0.22,0.099,0.443,0.196,0.67,0.277 c0.434,0.154,0.808,0.406,1.174,0.675c0.085,0.062,0.168,0.13,0.238,0.207c0.577,0.634,1.032,1.344,1.185,2.195 c0.209,1.167,0.103,2.309-0.449,3.379c-0.316,0.612-0.781,1.103-1.339,1.507c-0.544,0.394-1.139,0.68-1.796,0.835 c-0.191,0.045-0.382,0.095-0.568,0.157c-0.22,0.074-0.279,0.223-0.179,0.422c0.034,0.067,0.076,0.13,0.122,0.19 c0.274,0.359,0.563,0.707,0.822,1.077c0.328,0.468,0.633,0.952,0.947,1.43c0.033,0.05,0.052,0.11,0.087,0.158 c0.52,0.699,0.942,1.469,1.585,2.077c0.161,0.153,0.284,0.349,0.407,0.537c0.093,0.142,0.062,0.289-0.058,0.411 c-0.053,0.054-0.108,0.106-0.167,0.152c-0.473,0.374-0.947,0.747-1.421,1.121c-0.367,0.29-0.73,0.584-1.1,0.869 c-0.107,0.082-0.228,0.148-0.348,0.209c-0.146,0.073-0.301,0.067-0.43-0.032c-0.142-0.11-0.274-0.234-0.396-0.366 c-0.102-0.11-0.174-0.247-0.274-0.359c-0.699-0.779-1.217-1.681-1.767-2.561c-0.566-0.905-1.104-1.83-1.793-2.654 c-0.581-0.695-1.18-1.371-1.926-1.899c-0.134-0.095-0.275-0.186-0.424-0.254c-0.138-0.062-0.289,0.02-0.314,0.166 c-0.026,0.147-0.031,0.298-0.032,0.448c-0.003,0.766-0.001,1.533-0.001,2.299C40.075,14.738,40.082,14.737,40.088,14.737z M41.547,3.91c-0.001,0.009-0.001,0.018-0.002,0.027c-0.272-0.013-0.543-0.029-0.815-0.037c-0.151-0.004-0.303-0.005-0.453,0.009 c-0.374,0.035-0.478,0.146-0.489,0.509c-0.004,0.12,0.003,0.24,0.007,0.36c0.023,0.585,0.049,1.17,0.071,1.755 c0.025,0.66,0.048,1.32,0.072,1.98c0.003,0.075,0.003,0.15,0.01,0.225c0.029,0.28,0.115,0.386,0.389,0.403 c0.27,0.016,0.543,0.004,0.814-0.012c0.241-0.014,0.482-0.077,0.721-0.071c0.535,0.014,1.051-0.103,1.571-0.193 c0.493-0.085,0.972-0.219,1.439-0.399c0.328-0.127,0.617-0.316,0.887-0.536c0.191-0.156,0.349-0.345,0.414-0.581 c0.28-1.018,0.118-1.682-0.547-2.254c-0.663-0.57-1.445-0.878-2.285-1.025C42.759,3.966,42.149,3.96,41.547,3.91z M70.671,14.484 c-0.031-1.156-0.066-2.311-0.092-3.467c-0.008-0.375,0.014-0.751,0.006-1.126c-0.008-0.375-0.054-0.75-0.05-1.124 c0.007-0.614-0.044-1.23,0.03-1.844c0.016-0.132,0.007-0.273-0.024-0.402c-0.071-0.297-0.064-0.596-0.06-0.896 c0.007-0.54,0.03-1.082,0.008-1.621C70.474,3.635,70.624,3.4,70.94,3.248c0.421-0.202,0.844-0.402,1.269-0.597 c0.425-0.195,0.855-0.382,1.282-0.572c0.482-0.215,0.965-0.428,1.446-0.646c0.189-0.086,0.378-0.09,0.574-0.034 c0.305,0.086,0.61,0.175,0.917,0.254c0.775,0.198,1.56,0.365,2.326,0.593c0.62,0.185,1.243,0.38,1.813,0.702 c0.118,0.067,0.238,0.136,0.366,0.178c0.643,0.213,1.158,0.643,1.718,0.996c0.383,0.421,0.853,0.769,1.105,1.3 c0.026,0.054,0.055,0.109,0.094,0.154c0.406,0.476,0.653,1.047,0.923,1.598c0.318,0.649,0.546,1.331,0.596,2.064 c0.046,0.673,0.125,1.345,0.19,2.017c0.054,0.557,0.023,1.117-0.052,1.663c-0.158,1.162-0.4,2.31-0.862,3.397 c-0.399,0.938-0.948,1.777-1.709,2.469c-0.59,0.537-1.252,0.956-2.057,1.073c-0.567,0.083-1.142,0.138-1.715,0.142 c-1.285,0.009-2.569-0.027-3.854-0.035c-1.073-0.006-2.147,0.006-3.22,0.003c-0.302-0.001-0.605-0.012-0.905-0.047 c-0.311-0.036-0.386-0.119-0.408-0.436c-0.036-0.509-0.065-1.02-0.077-1.53c-0.028-1.156-0.045-2.312-0.066-3.468 C70.648,14.485,70.659,14.484,70.671,14.484z M74.895,15.237c-0.01,0.001-0.019,0.001-0.029,0.002 c0.026,0.495,0.051,0.989,0.08,1.484c0.016,0.274,0.153,0.482,0.369,0.644c0.366,0.275,0.782,0.453,1.213,0.596 c0.112,0.037,0.239,0.047,0.358,0.042c0.347-0.016,0.699-0.019,1.04-0.077c0.675-0.116,1.271-0.379,1.644-1.001 c0.287-0.479,0.562-0.962,0.711-1.504c0.08-0.29,0.151-0.582,0.215-0.875c0.221-1.002,0.328-2.014,0.29-3.041 c-0.034-0.919-0.119-1.829-0.422-2.706c-0.024-0.071-0.037-0.146-0.055-0.219c-0.151-0.602-0.392-1.167-0.701-1.705 c-0.059-0.104-0.119-0.226-0.213-0.287c-0.251-0.164-0.402-0.396-0.543-0.647c-0.065-0.115-0.167-0.214-0.263-0.308 c-0.678-0.662-1.455-1.167-2.366-1.458c-0.259-0.083-0.516-0.173-0.78-0.238c-0.174-0.043-0.357-0.066-0.536-0.063 C74.65,3.88,74.515,4.01,74.495,4.261c-0.013,0.163,0.007,0.33,0.015,0.494c0.044,0.869,0.089,1.739,0.133,2.608 c0.001,0.015-0.001,0.03,0,0.045c0.023,1.021,0.055,2.041,0.067,3.062c0.008,0.704,0.143,1.406,0.043,2.112 c-0.008,0.058,0.006,0.12,0.009,0.18C74.806,13.588,74.85,14.413,74.895,15.237z M28.607,6.209c0.024,0.871,0.048,1.742,0.07,2.613 c0.002,0.075,0.005,0.151-0.005,0.225c-0.025,0.192-0.123,0.294-0.322,0.32c-0.119,0.016-0.241,0.013-0.362,0.012 c-1.058-0.009-2.116-0.02-3.174-0.031c-0.604-0.006-1.207-0.012-1.811-0.021c-0.251-0.004-0.358-0.093-0.408-0.335 c-0.015-0.073-0.022-0.149-0.026-0.223c-0.033-0.63-0.065-1.26-0.095-1.889c-0.032-0.66-0.064-1.32-0.094-1.98 c-0.028-0.615-0.049-1.231-0.085-1.845c-0.021-0.36-0.058-0.719-0.097-1.077c-0.026-0.238-0.123-0.307-0.369-0.274 c-0.119,0.016-0.236,0.051-0.354,0.077c-0.841,0.185-1.683,0.364-2.522,0.557c-0.278,0.064-0.547,0.168-0.823,0.246 c-0.229,0.065-0.309,0.219-0.3,0.44c0.011,0.27,0.006,0.542,0.031,0.811c0.089,0.958,0.137,1.917,0.156,2.879 c0.018,0.885,0.084,1.769,0.125,2.654c0.042,0.915,0.08,1.83,0.12,2.745c0.02,0.45,0.031,0.9,0.063,1.35 c0.043,0.599,0.108,1.196,0.153,1.795c0.062,0.808,0.051,1.622,0.176,2.425c0.011,0.074,0.01,0.15,0.005,0.225 c-0.031,0.529,0.139,1.041,0.14,1.567c0,0.059,0.021,0.119,0.04,0.175c0.056,0.169,0.161,0.239,0.345,0.222 c0.09-0.008,0.18-0.026,0.267-0.05c0.713-0.2,1.427-0.395,2.135-0.608c0.332-0.1,0.652-0.238,0.979-0.356 c0.204-0.073,0.332-0.209,0.357-0.424c0.021-0.179,0.042-0.359,0.039-0.539c-0.01-0.51-0.031-1.021-0.052-1.531 c-0.048-1.141-0.1-2.281-0.148-3.422c-0.004-0.104,0-0.211,0.02-0.313c0.027-0.141,0.115-0.245,0.253-0.295 c0.085-0.03,0.173-0.054,0.262-0.069c0.417-0.072,0.834-0.144,1.252-0.21c1.09-0.173,2.18-0.344,3.271-0.514 c0.179-0.028,0.358-0.061,0.539-0.075c0.221-0.016,0.337,0.082,0.374,0.302c0.015,0.088,0.016,0.179,0.019,0.269 c0.023,0.646,0.041,1.291,0.068,1.937c0.063,1.501,0.13,3.001,0.197,4.502c0.015,0.345,0.046,0.69,0.051,1.035 c0.007,0.446,0.112,0.579,0.629,0.433c0.305-0.086,0.612-0.175,0.924-0.228c0.718-0.12,1.41-0.338,2.11-0.527 c0.058-0.016,0.115-0.039,0.169-0.063c0.119-0.053,0.191-0.148,0.21-0.275c0.013-0.089,0.019-0.18,0.015-0.269 c-0.045-1.005-0.093-2.01-0.139-3.016c-0.058-1.26-0.115-2.52-0.176-3.781c-0.009-0.195-0.036-0.389-0.054-0.583 c-0.012-0.134-0.027-0.269-0.035-0.404c-0.039-0.63-0.079-1.259-0.114-1.889c-0.02-0.359-0.024-0.72-0.043-1.079 c-0.02-0.389-0.046-0.779-0.071-1.168c-0.01-0.15-0.033-0.299-0.035-0.449c-0.01-0.993-0.102-1.979-0.197-2.966 c-0.037-0.389-0.046-0.78-0.091-1.168c-0.044-0.384-0.173-0.468-0.543-0.4c-0.059,0.011-0.117,0.03-0.177,0.041 c-0.848,0.159-1.677,0.394-2.503,0.64c-0.395,0.118-0.434,0.163-0.436,0.562c0,0.045,0.001,0.09,0.002,0.135 c0.037,1.05,0.074,2.101,0.11,3.151C28.618,6.209,28.613,6.209,28.607,6.209z M8.816,1.193c-0.378,0-0.762-0.044-1.132,0.009 c-0.762,0.11-1.529,0.227-2.272,0.425C4.304,1.923,3.215,2.292,2.118,2.632C2.003,2.668,1.887,2.707,1.78,2.761 C1.687,2.808,1.589,2.863,1.523,2.939C1.248,3.26,0.98,3.588,0.845,3.998C0.719,4.383,0.582,4.766,0.471,5.156 C0.235,5.978,0.186,6.807,0.366,7.651C0.548,8.51,0.977,9.204,1.653,9.767c0.458,0.381,0.975,0.658,1.501,0.922 c0.837,0.42,1.683,0.823,2.519,1.244c0.688,0.346,1.373,0.698,2.049,1.066c0.479,0.26,0.916,0.588,1.308,0.965 c0.362,0.349,0.647,0.754,0.786,1.246c0.211,0.745,0.011,1.427-0.336,2.081c-0.177,0.334-0.484,0.494-0.851,0.518 c-0.161,0.01-0.331-0.025-0.488-0.071c-0.377-0.11-0.749-0.239-1.123-0.36c-0.785-0.254-1.506-0.624-2.123-1.175 c-0.191-0.17-0.366-0.358-0.541-0.545c-0.475-0.506-0.652-1.103-0.538-1.785c0.02-0.118,0.055-0.235,0.073-0.353 c0.026-0.172-0.068-0.247-0.247-0.204c-0.029,0.007-0.059,0.015-0.087,0.026c-0.919,0.345-1.841,0.684-2.757,1.037 c-0.361,0.139-0.576,0.428-0.701,0.784c-0.117,0.335-0.124,0.678-0.045,1.023c0.117,0.509,0.348,0.967,0.708,1.342 c0.322,0.336,0.674,0.648,1.033,0.946c0.664,0.552,1.386,1.009,2.199,1.329c0.53,0.208,1.044,0.264,1.593,0.11 c0.407-0.114,0.821-0.204,1.235-0.291c0.71-0.149,1.422-0.283,2.132-0.432c0.71-0.149,1.416-0.315,2.127-0.46 c0.476-0.097,0.94-0.229,1.382-0.43c0.149-0.068,0.285-0.166,0.418-0.262c0.098-0.07,0.179-0.162,0.272-0.238 c0.371-0.302,0.647-0.671,0.808-1.122c0.076-0.212,0.155-0.424,0.231-0.636c0.313-0.874,0.445-1.766,0.365-2.7 c-0.072-0.835-0.312-1.591-0.855-2.235c-0.261-0.31-0.52-0.637-0.84-0.879c-0.648-0.492-1.33-0.942-2.054-1.32 C9.627,8.294,8.44,7.696,7.26,7.087c-0.335-0.173-0.661-0.364-0.995-0.54C5.921,6.367,5.671,6.089,5.437,5.791 C5.353,5.685,5.282,5.568,5.194,5.465c-0.322-0.38-0.337-0.823-0.267-1.281C4.962,3.958,5.1,3.804,5.321,3.731 c0.1-0.033,0.203-0.062,0.306-0.083c1.106-0.227,2.198-0.132,3.275,0.171C9.358,3.948,9.765,4.185,10.1,4.524 c0.19,0.192,0.37,0.395,0.537,0.607c0.212,0.27,0.279,0.302,0.615,0.198c0.115-0.036,0.229-0.077,0.342-0.121 c0.917-0.351,1.835-0.701,2.75-1.055c0.111-0.043,0.221-0.099,0.319-0.167c0.109-0.075,0.128-0.202,0.067-0.322 c-0.02-0.04-0.042-0.081-0.072-0.115c-0.275-0.32-0.548-0.641-0.831-0.954c-0.079-0.088-0.182-0.16-0.285-0.22 c-0.432-0.248-0.87-0.484-1.355-0.623c-0.232-0.067-0.457-0.157-0.687-0.233c-0.403-0.134-0.811-0.247-1.236-0.276 C9.783,1.212,9.3,1.189,8.818,1.162C8.817,1.172,8.816,1.182,8.816,1.193z M53.268,12.071c0.036,0.841,0.079,1.681,0.108,2.522 c0.044,1.306,0.079,2.613,0.118,3.92c0.01,0.345,0.008,0.692,0.031,1.036c0.02,0.312,0.145,0.435,0.455,0.447 c0.256,0.01,0.514-0.003,0.77-0.018c0.936-0.057,1.871-0.119,2.806-0.179c1.086-0.07,2.173-0.139,3.259-0.211 c0.784-0.052,1.568-0.114,2.353-0.162c0.543-0.034,1.088-0.048,1.631-0.078c0.392-0.022,0.784-0.055,1.176-0.084 c0.209-0.016,0.376-0.099,0.477-0.293c0.335-0.64,0.673-1.278,1.008-1.917c0.021-0.039,0.033-0.084,0.043-0.127 c0.021-0.088-0.038-0.195-0.128-0.208c-0.103-0.015-0.209-0.015-0.314-0.012c-0.181,0.006-0.363,0.038-0.543,0.029 c-0.559-0.03-1.118-0.04-1.676,0.019c-0.09,0.009-0.181,0.004-0.272,0.002c-1.316-0.025-2.631-0.003-3.944,0.066 c-0.619,0.033-1.236,0.069-1.858,0.038c-0.682-0.035-0.75-0.087-0.762-0.761c-0.012-0.646-0.016-1.291-0.024-1.937 c-0.005-0.406-0.019-0.811-0.014-1.217c0.006-0.538,0.092-0.628,0.613-0.693c0.015-0.002,0.03-0.002,0.045-0.004 c0.72-0.089,1.44-0.176,2.159-0.27c0.48-0.063,0.957-0.143,1.437-0.203c0.885-0.109,1.771-0.217,2.658-0.307 c0.33-0.033,0.566-0.167,0.735-0.45c0.308-0.517,0.635-1.024,0.942-1.541c0.18-0.303,0.1-0.434-0.258-0.462 c-0.075-0.006-0.151-0.008-0.227-0.008c-0.726-0.001-1.451-0.002-2.177,0c-0.181,0-0.363,0.011-0.544,0.017 c-0.967,0.029-1.934,0.065-2.901,0.083c-0.62,0.012-1.24-0.003-1.86-0.005c-0.076,0-0.151,0.004-0.227,0 c-0.308-0.017-0.416-0.09-0.473-0.38c-0.046-0.234-0.063-0.475-0.078-0.714c-0.011-0.179,0.006-0.361,0.001-0.541 c-0.022-0.781-0.05-1.562-0.071-2.342c-0.016-0.59,0.029-0.645,0.607-0.719c1.095-0.14,2.19-0.274,3.286-0.407 c0.645-0.079,1.291-0.153,1.937-0.229c0.645-0.076,1.291-0.149,1.936-0.229c0.375-0.047,0.749-0.1,1.122-0.16 c0.199-0.032,0.366-0.129,0.503-0.283c0.353-0.397,0.601-0.863,0.885-1.305c0.024-0.037,0.035-0.083,0.046-0.126 c0.029-0.107-0.037-0.221-0.15-0.236c-0.119-0.016-0.241-0.02-0.361-0.016c-0.438,0.014-0.876,0.046-1.314,0.046 c-0.377,0.001-0.754-0.046-1.132-0.048c-1.119-0.006-2.237,0.004-3.356,0c-0.937-0.003-1.875,0.002-2.812-0.029 c-0.62-0.021-1.238-0.048-1.858-0.01c-0.153,0.009-0.299,0.025-0.43,0.116c-0.409,0.284-0.82,0.565-1.232,0.845 c-0.312,0.212-0.625,0.422-0.94,0.63c-0.389,0.258-0.781,0.514-1.17,0.772c-0.05,0.033-0.095,0.074-0.143,0.11 c-0.151,0.114-0.2,0.258-0.133,0.437c0.092,0.246,0.085,0.501,0.082,0.757c-0.003,0.285-0.007,0.571,0.001,0.856 c0.035,1.216,0.074,2.433,0.11,3.649c0.01,0.345,0.018,0.691,0.021,1.037c0.003,0.495,0.001,0.991,0.001,1.486 C53.256,12.071,53.262,12.071,53.268,12.071z M150.236,6.209c0.024,0.871,0.048,1.742,0.07,2.613 c0.002,0.075,0.005,0.151-0.005,0.225c-0.025,0.192-0.123,0.294-0.322,0.32c-0.119,0.016-0.241,0.013-0.362,0.012 c-1.058-0.009-2.116-0.02-3.174-0.031c-0.604-0.006-1.207-0.012-1.811-0.021c-0.251-0.004-0.358-0.093-0.408-0.335 c-0.015-0.073-0.022-0.149-0.026-0.223c-0.033-0.63-0.065-1.26-0.095-1.889c-0.032-0.66-0.064-1.32-0.094-1.98 c-0.028-0.615-0.049-1.231-0.085-1.845c-0.021-0.36-0.058-0.719-0.097-1.077c-0.026-0.238-0.123-0.307-0.369-0.274 c-0.119,0.016-0.236,0.051-0.354,0.077c-0.841,0.185-1.683,0.364-2.522,0.557c-0.278,0.064-0.547,0.168-0.823,0.246 c-0.229,0.065-0.309,0.219-0.3,0.44c0.011,0.27,0.006,0.542,0.031,0.811c0.089,0.958,0.137,1.917,0.156,2.879 c0.018,0.885,0.084,1.769,0.125,2.654c0.042,0.915,0.08,1.83,0.12,2.745c0.02,0.45,0.031,0.9,0.063,1.35 c0.043,0.599,0.108,1.196,0.153,1.795c0.062,0.808,0.051,1.622,0.176,2.425c0.011,0.074,0.01,0.15,0.005,0.225 c-0.031,0.529,0.139,1.041,0.14,1.567c0,0.059,0.021,0.119,0.04,0.175c0.056,0.169,0.161,0.239,0.345,0.222 c0.09-0.008,0.18-0.026,0.267-0.05c0.713-0.2,1.427-0.395,2.135-0.608c0.332-0.1,0.652-0.238,0.979-0.356 c0.204-0.073,0.332-0.209,0.357-0.424c0.021-0.179,0.042-0.359,0.039-0.539c-0.01-0.51-0.031-1.021-0.052-1.531 c-0.048-1.141-0.1-2.281-0.148-3.422c-0.004-0.104,0-0.211,0.02-0.313c0.027-0.141,0.115-0.245,0.253-0.295 c0.085-0.03,0.173-0.054,0.262-0.069c0.417-0.072,0.834-0.144,1.252-0.21c1.09-0.173,2.18-0.344,3.271-0.514 c0.179-0.028,0.358-0.061,0.539-0.075c0.221-0.016,0.337,0.082,0.374,0.302c0.015,0.088,0.016,0.179,0.019,0.269 c0.023,0.646,0.041,1.291,0.068,1.937c0.063,1.501,0.13,3.001,0.197,4.502c0.015,0.345,0.046,0.69,0.051,1.035 c0.007,0.446,0.112,0.579,0.629,0.433c0.305-0.086,0.612-0.175,0.924-0.228c0.718-0.12,1.41-0.338,2.11-0.527 c0.058-0.016,0.115-0.039,0.169-0.063c0.119-0.053,0.191-0.148,0.21-0.275c0.013-0.089,0.019-0.18,0.015-0.269 c-0.045-1.005-0.093-2.01-0.139-3.016c-0.058-1.26-0.115-2.52-0.176-3.781c-0.009-0.195-0.036-0.389-0.054-0.583 c-0.012-0.134-0.027-0.269-0.035-0.404c-0.039-0.63-0.079-1.259-0.114-1.889c-0.02-0.359-0.024-0.72-0.043-1.079 c-0.02-0.389-0.046-0.779-0.071-1.168c-0.01-0.15-0.033-0.299-0.035-0.449c-0.01-0.993-0.102-1.979-0.197-2.966 c-0.037-0.389-0.046-0.78-0.091-1.168c-0.044-0.384-0.173-0.468-0.543-0.4c-0.059,0.011-0.117,0.03-0.177,0.041 c-0.848,0.159-1.677,0.394-2.503,0.64c-0.395,0.118-0.434,0.163-0.436,0.562c0,0.045,0.001,0.09,0.002,0.135 c0.037,1.05,0.074,2.101,0.11,3.151C150.247,6.209,150.242,6.209,150.236,6.209z M133.506,10.543 c-0.287,0.012-0.573,0.026-0.86,0.035c-0.136,0.005-0.273,0.011-0.407-0.001c-0.35-0.03-0.695,0.005-1.039,0.058 c-0.294,0.045-0.362,0.104-0.421,0.384c-0.07,0.338-0.137,0.677-0.196,1.017c-0.02,0.117-0.023,0.239-0.018,0.358 c0.005,0.117,0.089,0.196,0.207,0.197c0.105,0.001,0.21-0.014,0.315-0.026c0.24-0.028,0.479-0.073,0.72-0.086 c0.264-0.014,0.383,0.144,0.327,0.407c-0.012,0.059-0.035,0.115-0.053,0.172c-0.049,0.158-0.105,0.314-0.146,0.474 c-0.275,1.079-0.791,2.043-1.427,2.949c-0.086,0.122-0.181,0.242-0.291,0.344c-0.192,0.178-0.371,0.189-0.566,0.021 c-0.147-0.126-0.276-0.277-0.392-0.433c-0.389-0.524-0.675-1.103-0.892-1.715c-0.145-0.41-0.255-0.834-0.412-1.239 c-0.111-0.287-0.156-0.578-0.169-0.879c-0.008-0.18-0.007-0.36-0.013-0.541c-0.018-0.57-0.06-1.141-0.052-1.711 c0.013-0.904,0.184-1.791,0.348-2.677c0.016-0.088,0.037-0.178,0.071-0.261c0.35-0.861,0.573-1.777,1.125-2.551 c0.077-0.109,0.119-0.243,0.179-0.364c0.121-0.245,0.276-0.467,0.48-0.65c0.18-0.161,0.33-0.175,0.537-0.052 c0.09,0.054,0.181,0.115,0.25,0.192c0.211,0.235,0.427,0.467,0.612,0.721c0.377,0.517,0.583,1.117,0.794,1.713 c0.08,0.227,0.162,0.453,0.261,0.672c0.103,0.229,0.196,0.281,0.429,0.211c0.303-0.091,0.601-0.201,0.892-0.324 c0.445-0.187,0.881-0.394,1.323-0.589c0.345-0.152,0.698-0.288,1.038-0.452c0.217-0.104,0.252-0.246,0.13-0.442 c-0.175-0.28-0.342-0.566-0.588-0.797c-0.12-0.113-0.217-0.25-0.329-0.372c-0.172-0.188-0.346-0.376-0.524-0.558
    c-0.105-0.108-0.229-0.198-0.331-0.308c-0.701-0.758-1.514-1.377-2.388-1.921c-0.192-0.119-0.393-0.224-0.59-0.336 c-0.227-0.13-0.459-0.132-0.697-0.035c-0.112,0.045-0.225,0.089-0.336,0.136c-0.376,0.157-0.744,0.335-1.128,0.47 c-1.158,0.409-2.256,0.942-3.328,1.534c-0.092,0.051-0.185,0.102-0.279,0.15c-0.362,0.186-0.72,0.382-1.089,0.552 c-0.351,0.163-0.557,0.434-0.718,0.773c-0.395,0.835-0.637,1.72-0.859,2.608c-0.28,1.123-0.457,2.267-0.591,3.416 c-0.11,0.941-0.131,1.885-0.111,2.833c0.01,0.469,0.182,0.837,0.485,1.176c0.342,0.381,0.671,0.774,1.001,1.165 c0.868,1.031,1.852,1.934,2.966,2.698c0.062,0.042,0.125,0.087,0.176,0.141c0.465,0.493,1.086,0.755,1.65,1.1 c0.196,0.12,0.397,0.122,0.602,0.01c0.291-0.159,0.592-0.301,0.879-0.469c0.482-0.282,0.954-0.581,1.434-0.866 c0.142-0.084,0.294-0.155,0.449-0.212c0.152-0.056,0.272,0.007,0.326,0.155c0.035,0.098,0.055,0.203,0.079,0.305 c0.063,0.278,0.116,0.56,0.19,0.835c0.082,0.306,0.18,0.37,0.489,0.333c0.21-0.025,0.421-0.055,0.625-0.107 c0.747-0.19,1.492-0.388,2.235-0.589c0.47-0.127,0.537-0.23,0.432-0.712c-0.073-0.337-0.172-0.669-0.261-1.003 c-0.265-0.993-0.381-2.005-0.369-3.031c0.006-0.525,0.039-1.052,0.017-1.576c-0.017-0.407-0.01-0.808,0.041-1.212 c0.038-0.297,0.047-0.599,0.039-0.898c-0.006-0.233-0.104-0.329-0.337-0.344c-0.271-0.017-0.544-0.008-0.815,0.003 c-0.376,0.015-0.752,0.042-1.129,0.065C133.507,10.572,133.507,10.557,133.506,10.543z M162.956,11.277 c0,0.405,0.011,0.811-0.002,1.216c-0.037,1.172,0.016,2.343,0.049,3.514c0.012,0.42,0.019,0.841,0.032,1.261 c0.022,0.694,0.188,1.368,0.305,2.048c0.028,0.161,0.094,0.317,0.154,0.47c0.063,0.16,0.195,0.228,0.362,0.21 c0.12-0.013,0.238-0.04,0.355-0.07c0.849-0.217,1.698-0.435,2.546-0.657c0.16-0.042,0.32-0.092,0.473-0.155 c0.256-0.105,0.321-0.22,0.284-0.493c-0.061-0.446-0.138-0.891-0.194-1.338c-0.057-0.461-0.124-0.924-0.139-1.388 c-0.032-0.961-0.034-1.922-0.046-2.883c-0.002-0.135,0.009-0.27,0.012-0.405c0.006-0.36,0.022-0.72,0.013-1.08 c-0.01-0.42-0.087-0.843-0.054-1.258c0.054-0.69-0.007-1.379,0.033-2.07c0.059-1.018,0.019-2.041,0.023-3.063 c0.001-0.135,0.003-0.271,0.024-0.403c0.024-0.145,0.122-0.24,0.265-0.279c0.072-0.02,0.148-0.031,0.223-0.037 c0.708-0.057,1.416-0.116,2.125-0.166c0.679-0.048,1.357-0.092,2.037-0.129c0.291-0.016,0.474-0.139,0.572-0.421 c0.089-0.254,0.217-0.494,0.328-0.741c0.129-0.287,0.263-0.572,0.388-0.861c0.088-0.203,0.001-0.357-0.22-0.395 c-0.089-0.015-0.181-0.022-0.271-0.018c-0.559,0.022-1.117-0.005-1.675-0.021c-1.043-0.031-2.086-0.039-3.129-0.059 c-0.09-0.002-0.183-0.006-0.27-0.027c-0.215-0.05-0.342-0.194-0.355-0.412c-0.007-0.119,0.021-0.239,0.019-0.359 c-0.004-0.209-0.009-0.419-0.032-0.627c-0.015-0.138-0.126-0.206-0.264-0.175c-0.117,0.026-0.234,0.064-0.345,0.109 c-0.49,0.197-0.978,0.4-1.467,0.6c-0.266,0.109-0.531,0.216-0.762,0.394c-0.069,0.053-0.16,0.081-0.244,0.111 c-0.185,0.064-0.375,0.115-0.558,0.183c-0.358,0.133-0.725,0.212-1.108,0.205c-0.242-0.004-0.484-0.008-0.726-0.014 c-0.423-0.01-0.846-0.024-1.269-0.031c-0.347-0.005-0.695-0.004-1.042-0.002c-0.468,0.002-0.936,0.006-1.405,0.011 c-0.291,0.003-0.484,0.132-0.569,0.42c-0.064,0.216-0.149,0.425-0.219,0.64c-0.236,0.729-0.472,1.459-0.7,2.19 c-0.077,0.248,0.014,0.368,0.292,0.368c0.347,0,0.695-0.02,1.041-0.049c0.663-0.056,1.324-0.133,1.986-0.185 c0.633-0.05,1.267-0.076,1.9-0.117c0.226-0.015,0.451-0.053,0.677-0.06c0.321-0.01,0.443,0.105,0.467,0.416 c0.008,0.105,0.006,0.21,0.006,0.315c0.001,0.661,0.003,1.322,0.002,1.983c-0.003,1.141,0.105,2.282,0.039,3.424 c-0.007,0.12-0.001,0.24-0.001,0.361C162.934,11.277,162.945,11.277,162.956,11.277z M99.077,11.226 c-0.032-1.366-0.063-2.733-0.097-4.099c-0.016-0.645-0.039-1.291-0.053-1.936c-0.017-0.78-0.032-1.56-0.042-2.341 c-0.003-0.212,0.073-0.306,0.28-0.345c0.237-0.045,0.478-0.076,0.717-0.106c0.914-0.117,1.829-0.231,2.743-0.346 c0.06-0.008,0.12-0.015,0.18-0.023c0.465-0.056,0.491,0.063,0.54,0.405c0.047,0.327,0.112,0.652,0.132,0.981 c0.03,0.494,0.027,0.99,0.04,1.486c0.008,0.3,0.025,0.6,0.028,0.9c0.009,0.901,0.009,1.802,0.019,2.703 c0.005,0.42,0.014,0.838-0.011,1.259c-0.02,0.341,0.047,0.687,0.064,1.032c0.031,0.6,0.089,1.201,0.069,1.8 c-0.017,0.498,0,0.988,0.063,1.48c0.006,0.045,0.01,0.091,0.005,0.135c-0.075,0.63,0.006,1.26,0.003,1.89 c-0.001,0.24,0.011,0.481,0.038,0.719c0.039,0.338,0.154,0.432,0.505,0.446c0.06,0.002,0.121-0.001,0.181-0.002 c0.967-0.017,1.934-0.037,2.902-0.049c0.846-0.011,1.693-0.009,2.539-0.021c0.513-0.007,1.027-0.032,1.54-0.042 c0.135-0.003,0.272,0.011,0.404,0.034c0.107,0.019,0.173,0.141,0.143,0.245c-0.02,0.071-0.052,0.141-0.089,0.205 c-0.091,0.155-0.179,0.314-0.287,0.458c-0.148,0.196-0.246,0.407-0.304,0.646c-0.081,0.332-0.31,0.501-0.652,0.524 c-0.723,0.051-1.447,0.104-2.17,0.157c-0.859,0.063-1.718,0.127-2.577,0.188c-0.995,0.071-1.989,0.138-2.984,0.208 c-0.799,0.056-1.597,0.116-2.397,0.167c-0.256,0.016-0.514,0.018-0.771,0.013c-0.327-0.007-0.402-0.083-0.414-0.398 c-0.024-0.645-0.043-1.29-0.066-1.936c-0.047-1.336-0.099-2.671-0.141-4.007c-0.019-0.6-0.017-1.201-0.029-1.802 c-0.004-0.21-0.02-0.42-0.03-0.63C99.09,11.225,99.084,11.225,99.077,11.226z M174.64,11.226c-0.032-1.366-0.063-2.733-0.097-4.099 c-0.016-0.645-0.039-1.291-0.053-1.936c-0.017-0.78-0.032-1.56-0.042-2.341c-0.003-0.212,0.073-0.306,0.28-0.345 c0.237-0.045,0.478-0.076,0.717-0.106c0.914-0.117,1.829-0.231,2.743-0.346c0.06-0.008,0.12-0.015,0.18-0.023 c0.465-0.056,0.491,0.063,0.54,0.405c0.047,0.327,0.112,0.652,0.132,0.981c0.03,0.494,0.027,0.99,0.04,1.486 c0.008,0.3,0.025,0.6,0.028,0.9c0.008,0.901,0.009,1.802,0.019,2.703c0.005,0.42,0.014,0.838-0.011,1.259 c-0.02,0.341,0.047,0.687,0.064,1.032c0.031,0.6,0.089,1.201,0.069,1.8c-0.017,0.498,0,0.988,0.063,1.48 c0.006,0.045,0.01,0.091,0.005,0.135c-0.074,0.63,0.006,1.26,0.003,1.89c-0.001,0.24,0.011,0.481,0.038,0.719 c0.039,0.338,0.154,0.432,0.505,0.446c0.06,0.002,0.121-0.001,0.181-0.002c0.967-0.017,1.934-0.037,2.902-0.049 c0.846-0.011,1.693-0.009,2.539-0.021c0.513-0.007,1.027-0.032,1.54-0.042c0.135-0.003,0.272,0.011,0.404,0.034 c0.107,0.019,0.173,0.141,0.143,0.245c-0.02,0.071-0.052,0.141-0.089,0.205c-0.091,0.155-0.179,0.314-0.287,0.458 c-0.148,0.196-0.246,0.407-0.304,0.646c-0.081,0.332-0.31,0.501-0.652,0.524c-0.723,0.051-1.447,0.104-2.17,0.157 c-0.859,0.063-1.718,0.127-2.577,0.188c-0.995,0.071-1.989,0.138-2.984,0.208c-0.799,0.056-1.597,0.116-2.397,0.167 c-0.256,0.016-0.514,0.018-0.771,0.013c-0.327-0.007-0.402-0.083-0.414-0.398c-0.024-0.645-0.043-1.29-0.066-1.936 c-0.047-1.336-0.099-2.671-0.141-4.007c-0.019-0.6-0.017-1.201-0.029-1.802c-0.004-0.21-0.02-0.42-0.03-0.63 C174.652,11.225,174.646,11.225,174.64,11.226z M190.942,19.993c0.044-0.008,0.088-0.021,0.131-0.036 c0.656-0.229,1.313-0.454,1.966-0.69c0.378-0.136,0.613-0.402,0.75-0.786c0.286-0.806,0.598-1.604,0.905-2.403 c0.334-0.87,0.672-1.738,1.012-2.606c0.28-0.713,0.563-1.424,0.85-2.134c0.265-0.654,0.54-1.305,0.806-1.959 c0.079-0.195,0.126-0.403,0.212-0.594c0.363-0.807,0.602-1.668,1.059-2.436c0.068-0.114,0.097-0.252,0.143-0.379 c0.062-0.169,0.123-0.339,0.184-0.508c0.163-0.452,0.326-0.904,0.487-1.356c0.07-0.198,0.134-0.398,0.206-0.595 c0.108-0.296,0.23-0.588,0.329-0.887c0.062-0.186-0.043-0.297-0.236-0.262c-0.133,0.024-0.263,0.068-0.392,0.109 c-0.158,0.05-0.313,0.11-0.472,0.159c-0.389,0.121-0.779,0.239-1.17,0.355c-0.198,0.059-0.35,0.172-0.446,0.356 c-0.062,0.12-0.134,0.236-0.187,0.36c-0.165,0.387-0.325,0.776-0.484,1.165c-0.482,1.183-0.962,2.367-1.443,3.551 c-0.232,0.571-0.464,1.141-0.698,1.712c-0.04,0.097-0.08,0.195-0.134,0.285c-0.102,0.169-0.273,0.179-0.415,0.033 c-0.031-0.032-0.06-0.068-0.085-0.105c-0.187-0.273-0.388-0.538-0.555-0.823c-0.563-0.96-1.127-1.92-1.592-2.933 c-0.044-0.095-0.104-0.183-0.151-0.277c-0.318-0.631-0.637-1.26-0.949-1.894c-0.146-0.296-0.262-0.608-0.416-0.899 c-0.127-0.241-0.24-0.483-0.31-0.747c-0.034-0.129-0.088-0.256-0.152-0.374c-0.07-0.131-0.192-0.189-0.342-0.17 c-0.074,0.009-0.149,0.028-0.22,0.051c-0.894,0.278-1.788,0.555-2.68,0.84c-0.142,0.045-0.277,0.119-0.408,0.193 c-0.099,0.056-0.147,0.159-0.121,0.27c0.033,0.146,0.076,0.291,0.132,0.429c0.103,0.25,0.219,0.495,0.33,0.742 c0.185,0.411,0.343,0.837,0.561,1.231c0.663,1.196,1.346,2.382,2.028,3.568c0.292,0.508,0.6,1.008,0.904,1.51 c0.311,0.513,0.726,0.96,0.979,1.51c0.012,0.027,0.034,0.05,0.049,0.076c0.411,0.683,0.822,1.365,1.233,2.048 c0.023,0.039,0.044,0.079,0.066,0.118c0.114,0.207,0.153,0.426,0.076,0.652c-0.127,0.369-0.246,0.741-0.396,1.101 c-0.243,0.582-0.515,1.152-0.759,1.734c-0.145,0.346-0.262,0.704-0.386,1.059c-0.044,0.127-0.072,0.259-0.089,0.323 C190.648,19.935,190.759,20.028,190.942,19.993z M114.712,16.803c0,0.39-0.002,0.78,0.001,1.17c0.004,0.496-0.004,0.992,0.023,1.486 c0.032,0.572,0.133,0.623,0.669,0.458c0.505-0.156,1.015-0.298,1.526-0.433c0.628-0.166,1.261-0.314,1.889-0.479 c0.159-0.042,0.313-0.11,0.461-0.183c0.145-0.072,0.226-0.197,0.224-0.364c-0.007-0.555-0.014-1.111-0.025-1.666 c-0.005-0.225-0.026-0.449-0.03-0.674c-0.009-0.48-0.005-0.96-0.021-1.44c-0.016-0.464-0.059-0.928-0.077-1.392 c-0.028-0.72-0.043-1.44-0.068-2.16c-0.012-0.345-0.042-0.69-0.056-1.035c-0.032-0.795-0.058-1.589-0.09-2.384 c-0.005-0.12-0.029-0.239-0.039-0.358c-0.011-0.119-0.017-0.239-0.024-0.359c-0.037-0.69-0.074-1.379-0.112-2.069 c-0.007-0.135-0.023-0.269-0.027-0.404c-0.027-0.795-0.052-1.59-0.079-2.386c-0.015-0.442-0.162-0.564-0.599-0.443 c-1.15,0.318-2.307,0.611-3.458,0.924c-0.5,0.136-0.535,0.185-0.525,0.685c0.018,0.915-0.042,1.832,0.051,2.746 c0.009,0.089,0,0.18,0.003,0.27c0.018,0.706,0.031,1.411,0.057,2.117c0.042,1.14,0.093,2.28,0.137,3.421 c0.026,0.66,0.023,1.323,0.073,1.981c0.061,0.795,0.072,1.59,0.073,2.386c0,0.195,0,0.39,0,0.585 C114.683,16.803,114.698,16.803,114.712,16.803z"></path>
</svg>